<svg width="32" height="32" viewBox="0 0 32 32" fill="none" xmlns="http://www.w3.org/2000/svg">
<g clip-path="url(#clip0_85_10533)">
<path d="M29 6C29.2652 6 29.5196 6.10536 29.7071 6.29289C29.8946 6.48043 30 6.73478 30 7V25C30 25.2652 29.8946 25.5196 29.7071 25.7071C29.5196 25.8946 29.2652 26 29 26H3C2.73478 26 2.48043 25.8946 2.29289 25.7071C2.10536 25.5196 2 25.2652 2 25V7C2 6.73478 2.10536 6.48043 2.29289 6.29289C2.48043 6.10536 2.73478 6 3 6H29ZM3 4C2.20435 4 1.44129 4.31607 0.87868 4.87868C0.31607 5.44129 0 6.20435 0 7L0 25C0 25.7956 0.31607 26.5587 0.87868 27.1213C1.44129 27.6839 2.20435 28 3 28H29C29.7956 28 30.5587 27.6839 31.1213 27.1213C31.6839 26.5587 32 25.7956 32 25V7C32 6.20435 31.6839 5.44129 31.1213 4.87868C30.5587 4.31607 29.7956 4 29 4H3Z" fill="#F1CF70"/>
<path d="M14.0001 10.9998C14.0001 10.7346 14.1054 10.4803 14.293 10.2927C14.4805 10.1052 14.7349 9.99983 15.0001 9.99983H25.0001C25.2653 9.99983 25.5197 10.1052 25.7072 10.2927C25.8947 10.4803 26.0001 10.7346 26.0001 10.9998C26.0001 11.2651 25.8947 11.5194 25.7072 11.7069C25.5197 11.8945 25.2653 11.9998 25.0001 11.9998H15.0001C14.7349 11.9998 14.4805 11.8945 14.293 11.7069C14.1054 11.5194 14.0001 11.2651 14.0001 10.9998ZM11.0081 9.29183C11.1012 9.38473 11.1751 9.49508 11.2255 9.61657C11.2759 9.73806 11.3019 9.8683 11.3019 9.99983C11.3019 10.1314 11.2759 10.2616 11.2255 10.3831C11.1751 10.5046 11.1012 10.6149 11.0081 10.7078L8.00809 13.7078C7.9152 13.801 7.80485 13.8748 7.68336 13.9253C7.56187 13.9757 7.43163 14.0016 7.30009 14.0016C7.16856 14.0016 7.03831 13.9757 6.91682 13.9253C6.79533 13.8748 6.68498 13.801 6.59209 13.7078L5.59209 12.7078C5.49912 12.6149 5.42536 12.5045 5.37504 12.383C5.32473 12.2615 5.29883 12.1313 5.29883 11.9998C5.29883 11.7343 5.40432 11.4796 5.59209 11.2918C5.77986 11.1041 6.03454 10.9986 6.30009 10.9986C6.56564 10.9986 6.82032 11.1041 7.00809 11.2918L7.30009 11.5858L9.59209 9.29183C9.68498 9.19871 9.79533 9.12482 9.91682 9.07441C10.0383 9.024 10.1686 8.99805 10.3001 8.99805C10.4316 8.99805 10.5619 9.024 10.6834 9.07441C10.8048 9.12482 10.9152 9.19871 11.0081 9.29183ZM14.0001 18.9998C14.0001 18.7346 14.1054 18.4803 14.293 18.2927C14.4805 18.1052 14.7349 17.9998 15.0001 17.9998H25.0001C25.2653 17.9998 25.5197 18.1052 25.7072 18.2927C25.8947 18.4803 26.0001 18.7346 26.0001 18.9998C26.0001 19.2651 25.8947 19.5194 25.7072 19.7069C25.5197 19.8945 25.2653 19.9998 25.0001 19.9998H15.0001C14.7349 19.9998 14.4805 19.8945 14.293 19.7069C14.1054 19.5194 14.0001 19.2651 14.0001 18.9998ZM11.0081 17.2918C11.1012 17.3847 11.1751 17.4951 11.2255 17.6166C11.2759 17.7381 11.3019 17.8683 11.3019 17.9998C11.3019 18.1314 11.2759 18.2616 11.2255 18.3831C11.1751 18.5046 11.1012 18.6149 11.0081 18.7078L8.00809 21.7078C7.9152 21.801 7.80485 21.8748 7.68336 21.9253C7.56187 21.9757 7.43163 22.0016 7.30009 22.0016C7.16856 22.0016 7.03831 21.9757 6.91682 21.9253C6.79533 21.8748 6.68498 21.801 6.59209 21.7078L5.59209 20.7078C5.49912 20.6149 5.42536 20.5045 5.37504 20.383C5.32473 20.2615 5.29883 20.1313 5.29883 19.9998C5.29883 19.8683 5.32473 19.7381 5.37504 19.6167C5.42536 19.4952 5.49912 19.3848 5.59209 19.2918C5.68507 19.1989 5.79545 19.1251 5.91692 19.0748C6.0384 19.0245 6.1686 18.9986 6.30009 18.9986C6.43158 18.9986 6.56178 19.0245 6.68326 19.0748C6.80474 19.1251 6.91512 19.1989 7.00809 19.2918L7.30009 19.5858L9.59209 17.2918C9.68498 17.1987 9.79533 17.1248 9.91682 17.0744C10.0383 17.024 10.1686 16.998 10.3001 16.998C10.4316 16.998 10.5619 17.024 10.6834 17.0744C10.8048 17.1248 10.9152 17.1987 11.0081 17.2918Z" fill="#F1CF70"/>
</g>
<defs>
<clipPath id="clip0_85_10533">
<rect width="32" height="32" fill="white"/>
</clipPath>
</defs>
</svg>
