<svg width="24" height="24" viewBox="0 0 24 24" fill="none" xmlns="http://www.w3.org/2000/svg">
<path d="M12.75 8.39996C12.75 7.98575 12.4142 7.64996 12 7.64996C11.5858 7.64996 11.25 7.98575 11.25 8.39997L11.25 12.75H6.75C6.33579 12.75 6 13.0858 6 13.5C6 13.9142 6.33579 14.25 6.75 14.25H12C12.1989 14.25 12.3897 14.171 12.5303 14.0303C12.671 13.8897 12.75 13.6989 12.75 13.5L12.75 8.39996Z" fill="white"/>
<path d="M9.75 1.5C9.75 1.08579 10.0858 0.75 10.5 0.75H13.5C13.9142 0.75 14.25 1.08579 14.25 1.5C14.25 1.91421 13.9142 2.25 13.5 2.25V3.10641C15.5398 3.3983 17.3904 4.27624 18.8757 5.56421C18.8818 5.55771 18.888 5.5513 18.8943 5.54497L19.4247 5.01464L18.8943 4.48431C18.6014 4.19142 18.6014 3.71654 18.8943 3.42365C19.1872 3.13076 19.6621 3.13076 19.955 3.42365L22.0763 5.54497C22.3692 5.83786 22.3692 6.31274 22.0763 6.60563C21.7834 6.89852 21.3085 6.89852 21.0156 6.60563L20.4853 6.0753L19.955 6.60563C19.9487 6.61195 19.9423 6.61812 19.9358 6.62417C21.5333 8.46625 22.5 10.8702 22.5 13.5C22.5 19.299 17.799 24 12 24C6.20101 24 1.5 19.299 1.5 13.5C1.5 8.21021 5.41123 3.83459 10.5 3.10641V2.25C10.0858 2.25 9.75 1.91421 9.75 1.5ZM12 4.5C11.7666 4.5 11.5355 4.50886 11.3069 4.52626C6.66057 4.87971 3 8.76272 3 13.5C3 18.4706 7.02944 22.5 12 22.5C16.9706 22.5 21 18.4706 21 13.5C21 8.76272 17.3394 4.87971 12.6931 4.52626C12.4645 4.50886 12.2334 4.5 12 4.5Z" fill="white"/>
</svg>
